<svg xmlns="http://www.w3.org/2000/svg" width="20.388" height="28" viewBox="0 0 20.388 28">
  <g id="Group_13" data-name="Group 13" transform="translate(-318 -937)">
    <g id="Group_12" data-name="Group 12" transform="translate(318 937)">
      <path id="Path_2" data-name="Path 2" d="M206.951,386.73c-.42.387-.83.785-1.262,1.159-2.015,1.747-4.037,3.486-6.049,5.237a.549.549,0,0,0-.153.372c-.011,1.28-.015,2.559,0,3.839a.866.866,0,0,1-.544.883c-1.278.62-2.545,1.266-3.816,1.9-.677.338-1.091.085-1.092-.666,0-1.974,0-3.949,0-5.923a.545.545,0,0,0-.212-.465q-3.481-2.992-6.953-5.994a.815.815,0,0,1-.309-.688c.014-.768,0-1.535.005-2.3,0-.5.2-.708.693-.708q9.481,0,18.962-.006a.7.7,0,0,1,.728.456Zm-11.686,11.939a.838.838,0,0,0,.125-.036c.9-.452,1.811-.9,2.708-1.365a.4.4,0,0,0,.144-.3c.01-1.234.02-2.468,0-3.7a1.133,1.133,0,0,1,.448-.963q3.431-2.923,6.839-5.873c.074-.063.182-.146.184-.222.016-.534.009-1.069.009-1.605H187.79c0,.467.01.922,0,1.376a.534.534,0,0,0,.211.468c2.269,1.942,4.528,3.9,6.8,5.83a1.217,1.217,0,0,1,.475,1.035c-.021,1.681-.008,3.363-.008,5.045Z" transform="translate(-186.563 -372.268)" fill="#fff"/>
      <path id="Path_3" data-name="Path 3" d="M320.34,320.919c.1.038.2.078.3.115a2,2,0,0,1-.672,3.874,2.055,2.055,0,0,1-1.975-1.654,1.987,1.987,0,0,1,1.309-2.229c.092-.032.183-.07.274-.106Zm-.4,2.754a.763.763,0,0,0,.78-.775.789.789,0,0,0-.768-.771.779.779,0,0,0-.774.786A.748.748,0,0,0,319.944,323.673Z" transform="translate(-307.831 -314.634)" fill="#fff"/>
      <path id="Path_4" data-name="Path 4" d="M359.847,242.4a3.018,3.018,0,1,1-6.037,0,3.018,3.018,0,0,1,6.037,0Zm-3.022-1.758a1.744,1.744,0,0,0-1.782,1.754,1.792,1.792,0,1,0,3.584.01A1.748,1.748,0,0,0,356.825,240.645Z" transform="translate(-340.917 -239.391)" fill="#fff"/>
      <path id="Path_5" data-name="Path 5" d="M214.77,307.208a2.6,2.6,0,0,1,2.6,2.587,2.631,2.631,0,0,1-2.6,2.6,2.592,2.592,0,0,1,0-5.183Zm1.372,2.586a1.352,1.352,0,0,0-1.371-1.365,1.375,1.375,0,1,0,.017,2.75A1.365,1.365,0,0,0,216.142,309.793Z" transform="translate(-210.207 -301.98)" fill="#fff"/>
      <path id="Path_6" data-name="Path 6" d="M279.667,244.44a2.007,2.007,0,0,1-2.042,1.985,2,2,0,1,1,2.042-1.985Zm-2.755-.014a.771.771,0,1,0,1.541.02.771.771,0,0,0-1.541-.02Z" transform="translate(-268.821 -242.199)" fill="#fff"/>
    </g>
  </g>
</svg>
